<svg width="575" height="320" viewBox="0 0 575 320" fill="none" xmlns="http://www.w3.org/2000/svg">
    <rect x="406.391" y="1.49882" width="114.103" height="226.074" rx="6.66024" fill="#EFF7FE" stroke="#243544" stroke-width="1.48005"/>
    <path d="M463.445 62.165C449.539 62.165 438.161 73.5428 438.161 87.4489C438.161 101.355 449.539 112.733 463.445 112.733C477.351 112.733 488.729 101.355 488.729 87.4489C488.729 73.5428 477.351 62.165 463.445 62.165ZM474.064 83.1506L461.928 95.2869C460.917 96.2982 459.4 96.2982 458.388 95.2869L452.826 89.7244C451.814 88.7131 451.814 87.196 452.826 86.1847C453.837 85.1733 455.354 85.1733 456.365 86.1847L460.158 89.9772L470.524 79.6109C471.536 78.5995 473.053 78.5995 474.064 79.6109C475.076 80.6222 475.076 82.1393 474.064 83.1506Z" fill="#84BB19"/>
    <rect x="17.7928" y="52.0633" width="188.923" height="116.993" rx="6.66024" fill="#EFF7FE" stroke="#243544" stroke-width="1.48005"/>
    <path d="M223.566 174.765C223.001 180.743 221.978 185.093 219.457 188.704C216.841 192.452 212.543 195.502 205.182 198.672H23.5029C15.4996 196.418 10.4435 193.901 7.09082 190.183C3.85802 186.597 2.12782 181.803 0.993164 174.765H223.566Z" fill="#EFF7FE" stroke="black" stroke-width="1.48005"/>
    <path d="M109.773 83.8291C96.86 83.8291 86.2949 94.3941 86.2949 107.307C86.2949 120.22 96.86 130.785 109.773 130.785C122.686 130.785 133.251 120.22 133.251 107.307C133.251 94.3941 122.686 83.8291 109.773 83.8291ZM119.633 103.316L108.364 114.585C107.425 115.524 106.016 115.524 105.077 114.585L99.9121 109.42C98.973 108.481 98.973 107.072 99.9121 106.133C100.851 105.194 102.26 105.194 103.199 106.133L106.721 109.655L116.347 100.029C117.286 99.0897 118.694 99.0897 119.633 100.029C120.573 100.968 120.573 102.377 119.633 103.316Z" fill="#84BB19"/>
    <circle cx="193.422" cy="165.667" r="48.5931" fill="white" stroke="#243544" stroke-width="1.48005"/>
    <path d="M198.104 172.42V168.324C198.104 166.709 196.788 165.395 195.17 165.395C193.553 165.395 192.237 166.709 192.237 168.324V172.022C192.237 176.478 190.593 180.757 187.608 184.069L183.491 188.636C183.145 189.02 183.177 189.611 183.561 189.956C183.945 190.302 184.537 190.271 184.883 189.887L188.999 185.32C192.295 181.663 194.11 176.941 194.11 172.022V168.324C194.11 167.74 194.585 167.264 195.17 167.264C195.755 167.264 196.231 167.74 196.231 168.324V172.42C196.231 177.904 194.197 183.158 190.502 187.216L186.49 191.624C186.142 192.006 186.17 192.597 186.553 192.944C186.732 193.107 186.958 193.187 187.182 193.187C187.437 193.187 187.69 193.084 187.875 192.881L191.888 188.474C195.896 184.071 198.104 178.37 198.104 172.42Z" fill="#243544"/>
    <path d="M202.082 168.322C202.082 164.508 198.975 161.405 195.155 161.405C191.336 161.405 188.228 164.508 188.228 168.322V172.02C188.228 175.489 186.948 178.82 184.624 181.399L181.697 184.646C181.351 185.03 181.383 185.621 181.767 185.966C182.151 186.311 182.743 186.28 183.089 185.897L186.015 182.65C188.65 179.727 190.1 175.952 190.1 172.02V168.322C190.1 165.538 192.368 163.274 195.155 163.274C197.943 163.274 200.21 165.538 200.21 168.322V172.417C200.21 178.896 197.807 185.103 193.443 189.897L190.057 193.616C189.709 193.998 189.737 194.589 190.12 194.936C190.299 195.099 190.525 195.179 190.749 195.179C191.004 195.179 191.257 195.076 191.442 194.873L194.828 191.154C199.506 186.016 202.082 179.362 202.082 172.417V168.322Z" fill="#243544"/>
    <path d="M206.081 168.316C206.081 162.303 201.182 157.411 195.16 157.411C189.138 157.411 184.239 162.303 184.239 168.316V172.014C184.239 174.496 183.323 176.88 181.659 178.725L179.024 181.649C178.679 182.032 178.71 182.623 179.094 182.969C179.478 183.314 180.07 183.283 180.416 182.899L183.051 179.976C185.024 177.787 186.111 174.959 186.111 172.014V168.316C186.111 163.333 190.17 159.28 195.16 159.28C200.149 159.28 204.208 163.333 204.208 168.316V172.411C204.208 179.884 201.436 187.044 196.402 192.573L195.465 193.603C195.117 193.985 195.146 194.576 195.528 194.923C195.708 195.086 195.933 195.166 196.158 195.166C196.412 195.166 196.666 195.063 196.85 194.86L197.787 193.831C203.135 187.957 206.081 180.35 206.081 172.411V168.316H206.081Z" fill="#243544"/>
    <path d="M180.244 168.313C180.244 168.829 180.663 169.248 181.18 169.248C181.697 169.248 182.116 168.829 182.116 168.313C182.116 165.165 183.261 162.125 185.339 159.752C187.398 157.4 190.223 155.863 193.295 155.422C193.807 155.348 194.162 154.875 194.088 154.364C194.015 153.853 193.54 153.499 193.029 153.572C189.514 154.076 186.283 155.834 183.929 158.521C181.553 161.235 180.244 164.713 180.244 168.313Z" fill="#243544"/>
    <path d="M182.119 172.013C182.119 171.497 181.7 171.079 181.183 171.079C180.666 171.079 180.247 171.497 180.247 172.013C180.247 173.509 179.695 174.945 178.693 176.057L176.35 178.657C176.004 179.041 176.035 179.632 176.419 179.977C176.598 180.138 176.822 180.217 177.045 180.217C177.301 180.217 177.557 180.113 177.741 179.908L180.085 177.307C181.397 175.852 182.119 173.972 182.119 172.013Z" fill="#243544"/>
    <path d="M208.237 180.363C207.736 180.233 207.225 180.531 207.094 181.031C206.749 182.349 206.319 183.66 205.816 184.926C205.626 185.406 205.861 185.949 206.342 186.14C206.455 186.184 206.571 186.205 206.686 186.205C207.059 186.205 207.411 185.982 207.557 185.615C208.087 184.278 208.541 182.895 208.905 181.504C209.036 181.005 208.737 180.494 208.237 180.363Z" fill="#243544"/>
    <path d="M205.12 157.244C204.735 156.899 204.143 156.93 203.798 157.314C203.452 157.698 203.483 158.289 203.868 158.634C206.621 161.106 208.2 164.636 208.2 168.32V172.415C208.2 173.97 208.093 175.536 207.881 177.071C207.811 177.583 208.169 178.054 208.681 178.125C208.724 178.131 208.767 178.134 208.81 178.134C209.27 178.134 209.671 177.794 209.736 177.326C209.959 175.707 210.073 174.055 210.073 172.415V168.32C210.073 164.107 208.267 160.07 205.12 157.244Z" fill="#243544"/>
    <path d="M200.738 156.545C200.868 156.607 201.005 156.636 201.14 156.636C201.489 156.636 201.825 156.439 201.985 156.103C202.208 155.637 202.009 155.079 201.543 154.857C200.194 154.216 198.761 153.784 197.282 153.572C196.77 153.499 196.296 153.853 196.223 154.364C196.149 154.875 196.504 155.348 197.016 155.422C198.307 155.607 199.56 155.985 200.738 156.545Z" fill="#243544"/>
    <path d="M195.157 149.435C194.807 149.435 194.453 149.445 194.104 149.464C193.588 149.492 193.193 149.933 193.221 150.449C193.25 150.964 193.691 151.361 194.207 151.33C194.522 151.313 194.841 151.304 195.157 151.304C204.551 151.304 212.194 158.936 212.194 168.316V172.412C212.194 172.928 212.613 173.347 213.13 173.347C213.647 173.347 214.066 172.928 214.066 172.412V168.316C214.066 157.905 205.584 149.435 195.157 149.435Z" fill="#243544"/>
    <path d="M184.932 154.508C185.116 154.508 185.303 154.454 185.466 154.341C187.023 153.26 188.733 152.452 190.55 151.941C191.047 151.801 191.337 151.284 191.197 150.788C191.056 150.291 190.539 150.002 190.042 150.142C188.025 150.709 186.126 151.606 184.397 152.806C183.972 153.101 183.868 153.683 184.163 154.107C184.345 154.368 184.636 154.508 184.932 154.508Z" fill="#243544"/>
    <path d="M178.114 172.023V168.325C178.114 163.977 179.764 159.836 182.758 156.664C183.113 156.289 183.095 155.697 182.719 155.343C182.343 154.989 181.75 155.006 181.396 155.382C178.073 158.902 176.242 163.498 176.242 168.325V172.023C176.242 172.532 176.055 173.02 175.714 173.398L174.56 174.679C174.214 175.063 174.245 175.654 174.629 175.999C174.808 176.16 175.032 176.239 175.255 176.239C175.511 176.239 175.766 176.135 175.951 175.93L177.106 174.649C177.756 173.927 178.114 172.994 178.114 172.023Z" fill="#243544"/>
    <path d="M216.863 161.04C215.836 157.993 214.204 155.241 212.013 152.859C211.663 152.479 211.071 152.454 210.69 152.803C210.31 153.152 210.285 153.744 210.634 154.124C212.647 156.312 214.146 158.839 215.088 161.636C215.22 162.026 215.585 162.273 215.975 162.273C216.074 162.273 216.175 162.257 216.274 162.224C216.764 162.059 217.028 161.529 216.863 161.04Z" fill="#243544"/>
    <path d="M202.561 146.676C202.072 146.509 201.539 146.769 201.372 147.258C201.205 147.746 201.465 148.278 201.955 148.445C204.019 149.15 205.957 150.172 207.715 151.482C207.883 151.607 208.079 151.667 208.274 151.667C208.559 151.667 208.841 151.538 209.025 151.292C209.334 150.878 209.249 150.292 208.834 149.983C206.92 148.557 204.809 147.444 202.561 146.676Z" fill="#243544"/>
    <path d="M180.613 153.16C184.551 149.39 189.716 147.314 195.158 147.314C196.168 147.314 197.184 147.387 198.178 147.53C198.69 147.605 199.164 147.249 199.238 146.738C199.312 146.227 198.957 145.754 198.445 145.68C197.363 145.524 196.257 145.445 195.158 145.445C189.231 145.445 183.605 147.706 179.317 151.811C175.043 155.904 172.543 161.396 172.278 167.275C172.255 167.791 172.655 168.228 173.171 168.251C173.186 168.252 173.2 168.252 173.214 168.252C173.712 168.252 174.126 167.861 174.149 167.359C174.391 161.961 176.687 156.919 180.613 153.16Z" fill="#243544"/>
    <path d="M195.154 141.459C193.061 141.459 190.975 141.702 188.954 142.18C188.451 142.298 188.14 142.802 188.259 143.304C188.378 143.807 188.882 144.118 189.385 143.999C191.265 143.554 193.206 143.329 195.154 143.329C202.018 143.329 208.425 146.06 213.195 151.018C213.379 151.209 213.625 151.305 213.871 151.305C214.104 151.305 214.337 151.219 214.519 151.045C214.892 150.687 214.904 150.095 214.546 149.723C212.06 147.14 209.141 145.107 205.868 143.683C202.479 142.207 198.874 141.459 195.154 141.459Z" fill="#243544"/>
    <path d="M174.116 153.107C174.287 153.241 174.49 153.306 174.692 153.306C174.97 153.306 175.245 153.183 175.43 152.948C178.098 149.545 181.61 146.876 185.587 145.229C186.064 145.031 186.291 144.485 186.093 144.008C185.895 143.531 185.347 143.304 184.87 143.502C180.596 145.272 176.822 148.14 173.956 151.795C173.637 152.202 173.709 152.789 174.116 153.107Z" fill="#243544"/>
    <path d="M182.18 142.3C182.317 142.3 182.455 142.27 182.586 142.207C186.528 140.306 190.758 139.343 195.16 139.343C197.453 139.343 199.738 139.613 201.949 140.144C202.452 140.264 202.958 139.956 203.078 139.454C203.199 138.952 202.89 138.447 202.387 138.326C200.033 137.761 197.601 137.474 195.16 137.474C190.474 137.474 185.97 138.5 181.772 140.523C181.307 140.748 181.112 141.306 181.336 141.771C181.498 142.105 181.832 142.3 182.18 142.3Z" fill="#243544"/>
    <path d="M205.867 141.385C206.832 141.769 207.788 142.21 208.706 142.696C208.846 142.77 208.996 142.805 209.144 142.805C209.479 142.805 209.804 142.625 209.972 142.308C210.214 141.852 210.04 141.286 209.583 141.045C208.605 140.527 207.588 140.057 206.56 139.649C206.08 139.458 205.535 139.692 205.344 140.171C205.153 140.651 205.387 141.194 205.867 141.385Z" fill="#243544"/>
    <path d="M568.392 237.172H468.439C465.679 237.172 463.441 239.41 463.441 242.17V312.137C463.441 314.897 465.679 317.135 468.439 317.135H568.392C571.152 317.135 573.39 314.897 573.39 312.137V242.17C573.39 239.41 571.152 237.172 568.392 237.172Z" stroke="#243544" stroke-width="1.48005" stroke-linecap="round" stroke-linejoin="round"/>
    <path d="M518.416 282.148V297.141" stroke="#243544" stroke-width="2.96011" stroke-linecap="round" stroke-linejoin="round"/>
    <path d="M518.414 282.153C525.314 282.153 530.908 276.559 530.908 269.659C530.908 262.758 525.314 257.165 518.414 257.165C511.514 257.165 505.92 262.758 505.92 269.659C505.92 276.559 511.514 282.153 518.414 282.153Z" stroke="#243544" stroke-width="2.96011" stroke-linecap="round" stroke-linejoin="round"/>
    <path d="M493.429 237.171V217.18C493.429 210.553 496.061 204.197 500.748 199.511C505.434 194.825 511.79 192.192 518.417 192.192C525.044 192.192 531.4 194.825 536.086 199.511C540.773 204.197 543.405 210.553 543.405 217.18V237.171" stroke="#243544" stroke-width="1.48005" stroke-linecap="round" stroke-linejoin="round"/>
    <path d="M423.71 116.016V94.18C423.71 93.3527 423.381 92.5592 422.796 91.9742C422.211 91.3892 421.417 91.0605 420.59 91.0605H358.201C357.374 91.0605 356.581 91.3892 355.996 91.9742C355.411 92.5592 355.082 93.3527 355.082 94.18V116.016C355.082 153.449 389.396 162.808 389.396 162.808C389.396 162.808 423.71 153.449 423.71 116.016Z" fill="white" stroke="#243544" stroke-width="1.48005" stroke-linecap="round" stroke-linejoin="round"/>
    <path d="M373.796 125.379L383.154 134.737L404.99 112.901" stroke="#243544" stroke-width="2.96011" stroke-linecap="round" stroke-linejoin="round"/>
    <path d="M210.509 285.997V254.481C210.509 248.103 212.15 242.241 215.433 236.894C218.716 231.548 223.078 227.467 228.518 224.654C240.149 218.838 251.967 214.476 263.973 211.569C275.979 208.661 288.173 207.207 300.554 207.207C304.306 207.207 308.058 207.348 311.809 207.629C315.562 207.91 319.313 208.333 323.066 208.895C322.315 219.776 324.285 230.047 328.975 239.708C333.664 249.369 340.512 257.295 349.516 263.485V285.997H210.509ZM390.599 319.764L373.716 302.88V250.541C365.461 248.103 358.708 243.46 353.455 236.613C348.203 229.765 345.577 221.84 345.577 212.835C345.577 201.955 349.422 192.668 357.114 184.978C364.805 177.286 374.091 173.44 384.971 173.44C395.852 173.44 405.138 177.286 412.829 184.978C420.521 192.668 424.366 201.955 424.366 212.835C424.366 221.277 421.975 228.78 417.191 235.346C412.407 241.912 406.357 246.602 399.041 249.416L413.111 263.485L396.227 280.369L413.111 297.253L390.599 319.764ZM300.554 195.951C288.173 195.951 277.574 191.543 268.757 182.726C259.94 173.91 255.531 163.31 255.531 150.929C255.531 138.548 259.94 127.949 268.757 119.132C277.574 110.315 288.173 105.906 300.554 105.906C312.936 105.906 323.534 110.315 332.351 119.132C341.168 127.949 345.577 138.548 345.577 150.929C345.577 163.31 341.168 173.91 332.351 182.726C323.534 191.543 312.936 195.951 300.554 195.951ZM384.971 218.463C388.161 218.463 390.834 217.384 392.991 215.227C395.149 213.069 396.227 210.396 396.227 207.207C396.227 204.018 395.149 201.345 392.991 199.187C390.834 197.03 388.161 195.951 384.971 195.951C381.782 195.951 379.109 197.03 376.952 199.187C374.795 201.345 373.716 204.018 373.716 207.207C373.716 210.396 374.795 213.069 376.952 215.227C379.109 217.384 381.782 218.463 384.971 218.463Z" fill="#243544"/>
    <rect x="50.9197" y="218.211" width="92.8299" height="84.7462" rx="6.66024" stroke="#243544" stroke-width="1.48005"/>
    <path d="M91.2725 273.563C92.9391 274.727 95.3616 275.89 98.3898 275.89C101.418 275.89 103.84 274.727 105.507 273.563" stroke="#243544" stroke-width="1.48005" stroke-miterlimit="10" stroke-linecap="round" stroke-linejoin="round"/>
    <path d="M110.508 254.943V259.597" stroke="#243544" stroke-width="1.48005" stroke-miterlimit="10" stroke-linecap="round" stroke-linejoin="round"/>
    <path d="M86.2773 254.943V259.597" stroke="#243544" stroke-width="1.48005" stroke-miterlimit="10" stroke-linecap="round" stroke-linejoin="round"/>
    <path d="M98.3922 254.943V264.251C98.3922 265.536 97.3069 266.578 95.9697 266.578" stroke="#243544" stroke-width="1.48005" stroke-miterlimit="10" stroke-linecap="round" stroke-linejoin="round"/>
    <path d="M125.03 247.963V240.982C125.03 238.411 122.862 236.328 120.185 236.328H112.918" stroke="#243544" stroke-width="1.48005" stroke-miterlimit="10" stroke-linecap="round" stroke-linejoin="round"/>
    <path d="M83.8479 236.328H76.5804C73.9035 236.328 71.7354 238.411 71.7354 240.982V247.963" stroke="#243544" stroke-width="1.48005" stroke-miterlimit="10" stroke-linecap="round" stroke-linejoin="round"/>
    <path d="M112.918 287.525H120.185C122.862 287.525 125.03 285.443 125.03 282.871V275.89" stroke="#243544" stroke-width="1.48005" stroke-miterlimit="10" stroke-linecap="round" stroke-linejoin="round"/>
    <path d="M71.7354 275.89V282.871C71.7354 285.443 73.9035 287.525 76.5804 287.525H83.8479" stroke="#243544" stroke-width="1.48005" stroke-miterlimit="10" stroke-linecap="round" stroke-linejoin="round"/>
</svg>
